<svg width="36" height="41" viewBox="0 0 36 41" fill="none" xmlns="http://www.w3.org/2000/svg">
<path d="M18.5 40.6514C21.2344 40.6514 23.4219 38.4639 23.4219 35.6514H13.5C13.5 38.4639 15.6875 40.6514 18.5 40.6514ZM35.2969 29.0107C33.8125 27.3701 30.9219 24.9482 30.9219 16.9014C30.9219 10.8857 26.7031 6.04199 20.9219 4.79199V3.15137C20.9219 1.82324 19.8281 0.651367 18.5 0.651367C17.0938 0.651367 16 1.82324 16 3.15137V4.79199C10.2188 6.04199 6 10.8857 6 16.9014C6 24.9482 3.10938 27.3701 1.625 29.0107C1.15625 29.4795 0.921875 30.1045 1 30.6514C1 31.9795 1.9375 33.1514 3.5 33.1514H33.4219C34.9844 33.1514 35.9219 31.9795 36 30.6514C36 30.1045 35.7656 29.4795 35.2969 29.0107Z" fill="white"/>
</svg>
