<svg width="16" height="16" viewBox="0 0 16 16" fill="none" xmlns="http://www.w3.org/2000/svg">
<path d="M7.50016 3.9994V13.2727C7.50016 13.7461 7.02016 14.0727 6.58683 13.8927C5.34683 13.3727 3.80683 12.9194 2.7135 12.7727L2.50683 12.7461C1.86016 12.6661 1.3335 12.0727 1.3335 11.4261V3.4994C1.3335 2.6994 1.98016 2.05273 2.78016 2.05273H2.82683C4.08016 2.1594 5.92683 2.74607 7.14683 3.40607C7.36683 3.52607 7.50016 3.74607 7.50016 3.9994Z" fill="#B1B5C3"/>
<path d="M13.22 2.05273H13.18C13.02 2.06607 12.8467 2.08607 12.6667 2.1194C11.8467 2.25273 10.8733 2.53273 10 2.8794C9.58667 3.04607 9.2 3.22607 8.86 3.40607C8.64 3.52607 8.5 3.75273 8.5 3.9994V13.2727C8.5 13.7461 8.98 14.0727 9.41333 13.8927C10.6533 13.3727 12.1933 12.9194 13.2867 12.7727L13.4933 12.7461C14.14 12.6661 14.6667 12.0727 14.6667 11.4261V3.4994C14.6667 2.6994 14.02 2.05273 13.22 2.05273ZM12.8467 9.15273C12.8467 9.41273 12.66 9.52607 12.4333 9.3994L11.7267 9.00607C11.6533 8.96607 11.5333 8.96607 11.4533 9.00607L10.7467 9.3994C10.52 9.52607 10.3333 9.41273 10.3333 9.15273V7.10607C10.3333 6.7994 10.5867 6.54607 10.8933 6.54607H12.2933C12.6 6.54607 12.8533 6.7994 12.8533 7.10607V9.15273H12.8467Z" fill="#B1B5C3"/>
</svg>
