<svg width="16" height="16" viewBox="0 0 16 16" fill="none" xmlns="http://www.w3.org/2000/svg">
<path opacity="0.4" d="M10.7934 1.33325H5.21342C2.78675 1.33325 1.34009 2.77992 1.34009 5.20658V10.7866C1.34009 13.2132 2.78675 14.6599 5.21342 14.6599H10.7934C13.2201 14.6599 14.6667 13.2132 14.6667 10.7866V5.20658C14.6667 2.77992 13.2201 1.33325 10.7934 1.33325Z" fill="#777E90"/>
<path d="M7.66658 5.39341V11.5001C7.66658 11.7401 7.42658 11.9001 7.20658 11.8067C6.39992 11.4601 5.34657 11.1401 4.61324 11.0468L4.48657 11.0334C4.07991 10.9801 3.74658 10.6001 3.74658 10.1867V5.05341C3.74658 4.54674 4.15992 4.16675 4.66659 4.20675C5.49992 4.27341 6.73326 4.67342 7.50659 5.11342C7.60659 5.16009 7.66658 5.27341 7.66658 5.39341Z" fill="#777E90"/>
<path d="M12.2533 5.1333V10.18C12.2533 10.5933 11.9199 10.9733 11.5133 11.0266L11.3733 11.04C10.6466 11.14 9.59992 11.4533 8.79325 11.7933C8.57325 11.8866 8.33325 11.7266 8.33325 11.4866V5.38662C8.33325 5.26662 8.39325 5.1533 8.49992 5.0933C9.27325 4.65997 10.4799 4.27328 11.2999 4.19995H11.3266C11.8399 4.20662 12.2533 4.61997 12.2533 5.1333Z" fill="#777E90"/>
</svg>
