<svg width="20" height="20" viewBox="0 0 20 20" fill="none" xmlns="http://www.w3.org/2000/svg">
<path d="M13.9582 2.96601V1.66602C13.9582 1.32435 13.6749 1.04102 13.3332 1.04102C12.9915 1.04102 12.7082 1.32435 12.7082 1.66602V2.91602H7.29153V1.66602C7.29153 1.32435 7.0082 1.04102 6.66653 1.04102C6.32487 1.04102 6.04153 1.32435 6.04153 1.66602V2.96601C3.79153 3.17435 2.69987 4.51601 2.5332 6.50768C2.51653 6.74935 2.71653 6.94935 2.94987 6.94935H17.0499C17.2915 6.94935 17.4915 6.74101 17.4665 6.50768C17.2999 4.51601 16.2082 3.17435 13.9582 2.96601Z" fill="#B1B5C3"/>
<path opacity="0.4" d="M16.6667 8.19922C17.125 8.19922 17.5 8.57422 17.5 9.03255V14.1659C17.5 16.6659 16.25 18.3326 13.3333 18.3326H6.66667C3.75 18.3326 2.5 16.6659 2.5 14.1659V9.03255C2.5 8.57422 2.875 8.19922 3.33333 8.19922H16.6667Z" fill="#B1B5C3"/>
<path d="M7.08333 12.4997C6.86667 12.4997 6.65 12.4081 6.49167 12.2581C6.34167 12.0997 6.25 11.8831 6.25 11.6664C6.25 11.4497 6.34167 11.2331 6.49167 11.0747C6.725 10.8414 7.09167 10.7664 7.4 10.8997C7.50833 10.9414 7.6 10.9997 7.675 11.0747C7.825 11.2331 7.91667 11.4497 7.91667 11.6664C7.91667 11.8831 7.825 12.0997 7.675 12.2581C7.51667 12.4081 7.3 12.4997 7.08333 12.4997Z" fill="#B1B5C3"/>
<path d="M9.99984 12.4997C9.78317 12.4997 9.5665 12.4081 9.40817 12.2581C9.25817 12.0997 9.1665 11.8831 9.1665 11.6664C9.1665 11.4497 9.25817 11.2331 9.40817 11.0747C9.48317 10.9997 9.57484 10.9414 9.68317 10.8997C9.9915 10.7664 10.3582 10.8414 10.5915 11.0747C10.7415 11.2331 10.8332 11.4497 10.8332 11.6664C10.8332 11.8831 10.7415 12.0997 10.5915 12.2581C10.5498 12.2914 10.5082 12.3247 10.4665 12.3581C10.4165 12.3914 10.3665 12.4164 10.3165 12.4331C10.2665 12.4581 10.2165 12.4747 10.1665 12.4831C10.1082 12.4914 10.0582 12.4997 9.99984 12.4997Z" fill="#B1B5C3"/>
<path d="M12.9168 12.5007C12.7002 12.5007 12.4835 12.409 12.3252 12.259C12.1752 12.1007 12.0835 11.884 12.0835 11.6673C12.0835 11.4507 12.1752 11.234 12.3252 11.0757C12.4085 11.0007 12.4918 10.9423 12.6002 10.9006C12.7502 10.834 12.9168 10.8173 13.0835 10.8507C13.1335 10.859 13.1835 10.8756 13.2335 10.9006C13.2835 10.9173 13.3335 10.9423 13.3835 10.9757C13.4252 11.009 13.4668 11.0423 13.5085 11.0757C13.6585 11.234 13.7502 11.4507 13.7502 11.6673C13.7502 11.884 13.6585 12.1007 13.5085 12.259C13.4668 12.2923 13.4252 12.3256 13.3835 12.359C13.3335 12.3923 13.2835 12.4173 13.2335 12.434C13.1835 12.459 13.1335 12.4757 13.0835 12.484C13.0252 12.4923 12.9668 12.5007 12.9168 12.5007Z" fill="#B1B5C3"/>
<path d="M7.08333 15.4167C6.975 15.4167 6.86667 15.3917 6.76667 15.35C6.65833 15.3084 6.575 15.25 6.49167 15.175C6.34167 15.0167 6.25 14.8 6.25 14.5833C6.25 14.3667 6.34167 14.15 6.49167 13.9917C6.575 13.9167 6.65833 13.8583 6.76667 13.8167C6.91667 13.75 7.08333 13.7333 7.25 13.7667C7.3 13.775 7.35 13.7917 7.4 13.8167C7.45 13.8333 7.5 13.8584 7.55 13.8917C7.59167 13.925 7.63333 13.9584 7.675 13.9917C7.825 14.15 7.91667 14.3667 7.91667 14.5833C7.91667 14.8 7.825 15.0167 7.675 15.175C7.63333 15.2083 7.59167 15.25 7.55 15.275C7.5 15.3083 7.45 15.3334 7.4 15.35C7.35 15.375 7.3 15.3917 7.25 15.4C7.19167 15.4084 7.14167 15.4167 7.08333 15.4167Z" fill="#B1B5C3"/>
<path d="M9.99984 15.416C9.78317 15.416 9.5665 15.3243 9.40817 15.1743C9.25817 15.016 9.1665 14.7993 9.1665 14.5827C9.1665 14.366 9.25817 14.1493 9.40817 13.991C9.7165 13.6827 10.2832 13.6827 10.5915 13.991C10.7415 14.1493 10.8332 14.366 10.8332 14.5827C10.8332 14.7993 10.7415 15.016 10.5915 15.1743C10.4332 15.3243 10.2165 15.416 9.99984 15.416Z" fill="#B1B5C3"/>
<path d="M12.9168 15.416C12.7002 15.416 12.4835 15.3243 12.3252 15.1743C12.1752 15.016 12.0835 14.7993 12.0835 14.5827C12.0835 14.366 12.1752 14.1493 12.3252 13.991C12.6335 13.6827 13.2002 13.6827 13.5085 13.991C13.6585 14.1493 13.7502 14.366 13.7502 14.5827C13.7502 14.7993 13.6585 15.016 13.5085 15.1743C13.3502 15.3243 13.1335 15.416 12.9168 15.416Z" fill="#B1B5C3"/>
</svg>
