<svg width="35" height="41" viewBox="0 0 35 41" fill="none" xmlns="http://www.w3.org/2000/svg">
<path d="M0 36.9561C0 39.0654 1.64062 40.7061 3.75 40.7061H31.25C33.2812 40.7061 35 39.0654 35 36.9561V15.7061H0V36.9561ZM25 21.6436C25 21.1748 25.3906 20.7061 25.9375 20.7061H29.0625C29.5312 20.7061 30 21.1748 30 21.6436V24.7686C30 25.3154 29.5312 25.7061 29.0625 25.7061H25.9375C25.3906 25.7061 25 25.3154 25 24.7686V21.6436ZM25 31.6436C25 31.1748 25.3906 30.7061 25.9375 30.7061H29.0625C29.5312 30.7061 30 31.1748 30 31.6436V34.7686C30 35.3154 29.5312 35.7061 29.0625 35.7061H25.9375C25.3906 35.7061 25 35.3154 25 34.7686V31.6436ZM15 21.6436C15 21.1748 15.3906 20.7061 15.9375 20.7061H19.0625C19.5312 20.7061 20 21.1748 20 21.6436V24.7686C20 25.3154 19.5312 25.7061 19.0625 25.7061H15.9375C15.3906 25.7061 15 25.3154 15 24.7686V21.6436ZM15 31.6436C15 31.1748 15.3906 30.7061 15.9375 30.7061H19.0625C19.5312 30.7061 20 31.1748 20 31.6436V34.7686C20 35.3154 19.5312 35.7061 19.0625 35.7061H15.9375C15.3906 35.7061 15 35.3154 15 34.7686V31.6436ZM5 21.6436C5 21.1748 5.39062 20.7061 5.9375 20.7061H9.0625C9.53125 20.7061 10 21.1748 10 21.6436V24.7686C10 25.3154 9.53125 25.7061 9.0625 25.7061H5.9375C5.39062 25.7061 5 25.3154 5 24.7686V21.6436ZM5 31.6436C5 31.1748 5.39062 30.7061 5.9375 30.7061H9.0625C9.53125 30.7061 10 31.1748 10 31.6436V34.7686C10 35.3154 9.53125 35.7061 9.0625 35.7061H5.9375C5.39062 35.7061 5 35.3154 5 34.7686V31.6436ZM31.25 5.70605H27.5V1.95605C27.5 1.33105 26.875 0.706055 26.25 0.706055H23.75C23.0469 0.706055 22.5 1.33105 22.5 1.95605V5.70605H12.5V1.95605C12.5 1.33105 11.875 0.706055 11.25 0.706055H8.75C8.04688 0.706055 7.5 1.33105 7.5 1.95605V5.70605H3.75C1.64062 5.70605 0 7.4248 0 9.45605V13.2061H35V9.45605C35 7.4248 33.2812 5.70605 31.25 5.70605Z" fill="white"/>
</svg>
