<svg width="20" height="20" viewBox="0 0 20 20" fill="none" xmlns="http://www.w3.org/2000/svg">
<path d="M14.6832 8.95768C14.3248 8.95768 14.0415 8.66602 14.0415 8.31602C14.0415 8.00768 13.7332 7.36602 13.2165 6.80768C12.7082 6.26602 12.1498 5.94935 11.6832 5.94935C11.3248 5.94935 11.0415 5.65768 11.0415 5.30768C11.0415 4.95768 11.3332 4.66602 11.6832 4.66602C12.5165 4.66602 13.3915 5.11602 14.1582 5.92435C14.8748 6.68268 15.3332 7.62435 15.3332 8.30768C15.3332 8.66602 15.0415 8.95768 14.6832 8.95768Z" fill="#1976D2"/>
<path d="M17.6915 8.95768C17.3331 8.95768 17.0498 8.66601 17.0498 8.31601C17.0498 5.35768 14.6415 2.95768 11.6915 2.95768C11.3331 2.95768 11.0498 2.66602 11.0498 2.31602C11.0498 1.96602 11.3331 1.66602 11.6831 1.66602C15.3498 1.66602 18.3331 4.64935 18.3331 8.31601C18.3331 8.66601 18.0415 8.95768 17.6915 8.95768Z" fill="#1976D2"/>
<path opacity="0.8" d="M9.82484 11.841L7.09984 14.566C6.79984 14.2993 6.50817 14.0243 6.22484 13.741C5.3665 12.8743 4.5915 11.966 3.89984 11.016C3.2165 10.066 2.6665 9.11602 2.2665 8.17435C1.8665 7.22435 1.6665 6.31602 1.6665 5.44935C1.6665 4.88268 1.7665 4.34102 1.9665 3.84102C2.1665 3.33268 2.48317 2.86602 2.92484 2.44935C3.45817 1.92435 4.0415 1.66602 4.65817 1.66602C4.8915 1.66602 5.12484 1.71602 5.33317 1.81602C5.54984 1.91602 5.7415 2.06602 5.8915 2.28268L7.82484 5.00768C7.97484 5.21602 8.08317 5.40768 8.15817 5.59102C8.23317 5.76602 8.27484 5.94102 8.27484 6.09935C8.27484 6.29935 8.2165 6.49935 8.09984 6.69101C7.9915 6.88268 7.83317 7.08268 7.63317 7.28268L6.99984 7.94101C6.90817 8.03268 6.8665 8.14102 6.8665 8.27435C6.8665 8.34102 6.87484 8.39935 6.8915 8.46601C6.9165 8.53268 6.9415 8.58268 6.95817 8.63268C7.10817 8.90768 7.3665 9.26602 7.73317 9.69935C8.10817 10.1327 8.50817 10.5743 8.9415 11.016C9.2415 11.3077 9.53317 11.591 9.82484 11.841Z" fill="#1976D2"/>
<path d="M18.3083 15.2742C18.3083 15.5076 18.2667 15.7492 18.1833 15.9826C18.1583 16.0492 18.1333 16.1159 18.1 16.1826C17.9583 16.4826 17.775 16.7659 17.5333 17.0326C17.125 17.4826 16.675 17.8076 16.1667 18.0159C16.1583 18.0159 16.15 18.0242 16.1417 18.0242C15.65 18.2242 15.1167 18.3326 14.5417 18.3326C13.6917 18.3326 12.7833 18.1326 11.825 17.7242C10.8667 17.3159 9.90833 16.7659 8.95833 16.0742C8.63333 15.8326 8.30833 15.5909 8 15.3326L10.725 12.6076C10.9583 12.7826 11.1667 12.9159 11.3417 13.0076C11.3833 13.0242 11.4333 13.0492 11.4917 13.0742C11.5583 13.0992 11.625 13.1076 11.7 13.1076C11.8417 13.1076 11.95 13.0576 12.0417 12.9659L12.675 12.3409C12.8833 12.1326 13.0833 11.9742 13.275 11.8742C13.4667 11.7576 13.6583 11.6992 13.8667 11.6992C14.025 11.6992 14.1917 11.7326 14.375 11.8076C14.5583 11.8826 14.75 11.9909 14.9583 12.1326L17.7167 14.0909C17.9333 14.2409 18.0833 14.4159 18.175 14.6242C18.2583 14.8326 18.3083 15.0409 18.3083 15.2742Z" fill="#1976D2"/>
</svg>
