<svg width="20" height="20" viewBox="0 0 20 20" fill="none" xmlns="http://www.w3.org/2000/svg">
<path opacity="0.4" d="M15.3169 10.6992V14.8076C15.3169 15.8659 14.4919 16.9992 13.5003 17.3326L10.8419 18.2159C10.3753 18.3742 9.61693 18.3742 9.15859 18.2159L6.50026 17.3326C5.50026 16.9992 4.68359 15.8659 4.68359 14.8076L4.69193 10.6992L8.37526 13.0992C9.27526 13.6909 10.7586 13.6909 11.6586 13.0992L15.3169 10.6992Z" fill="#B1B5C3"/>
<path d="M16.6503 5.38281L11.6586 2.10781C10.7586 1.51615 9.27526 1.51615 8.37526 2.10781L3.35859 5.38281C1.75026 6.42448 1.75026 8.78281 3.35859 9.83281L4.69193 10.6995L8.37526 13.0995C9.27526 13.6911 10.7586 13.6911 11.6586 13.0995L15.3169 10.6995L16.4586 9.94948V12.4995C16.4586 12.8411 16.7419 13.1245 17.0836 13.1245C17.4253 13.1245 17.7086 12.8411 17.7086 12.4995V8.39948C18.0419 7.32448 17.7003 6.07448 16.6503 5.38281Z" fill="#B1B5C3"/>
</svg>
