<svg width="20" height="20" viewBox="0 0 20 20" fill="none" xmlns="http://www.w3.org/2000/svg">
<path d="M12.5166 1.85781C10.8499 1.59948 9.14997 1.59948 7.4833 1.85781C6.79997 1.96615 6.29996 2.54947 6.29996 3.23281V6.29947H3.2333C2.54996 6.29947 1.96663 6.79948 1.8583 7.48281C1.59997 9.14948 1.59997 10.8495 1.8583 12.5161C1.96663 13.1995 2.54996 13.6995 3.2333 13.6995H4.63329C4.86662 13.6995 5.04996 13.5161 5.04996 13.2828V11.8495C5.04996 10.1411 6.44162 8.74947 8.14996 8.74947H11.85C12.1833 8.74947 12.45 8.4828 12.45 8.14947V5.46613C12.45 5.2328 12.6333 5.04947 12.8666 5.04947H13.2833C13.5166 5.04947 13.7 4.86613 13.7 4.6328V3.23281C13.7 2.54947 13.2 1.96615 12.5166 1.85781ZM8.60828 4.64946C8.26661 4.64946 7.94162 4.32447 7.94162 3.9828C7.94162 3.6328 8.26661 3.3078 8.60828 3.3078C8.77495 3.3078 8.9583 3.38281 9.07497 3.49948C9.19997 3.61615 9.2833 3.8078 9.2833 3.9828C9.2833 4.32447 8.95828 4.64946 8.60828 4.64946Z" fill="#1976D2"/>
<path d="M18.1415 7.48217C18.0331 6.79884 17.4498 6.29883 16.7665 6.29883H14.1165C13.8831 6.29883 13.6998 6.48216 13.6998 6.71549V8.14883C13.6998 9.1655 12.8748 9.99883 11.8498 9.99883H8.14981C7.12481 9.99883 6.2998 10.8238 6.2998 11.8488V16.7655C6.2998 17.4488 6.79982 18.0322 7.48315 18.1405C9.14982 18.3988 10.8498 18.3988 12.5165 18.1405C13.1998 18.0322 13.6998 17.4488 13.6998 16.7655V13.6988H16.7665C17.4498 13.6988 18.0331 13.1988 18.1415 12.5155C18.3998 10.8488 18.3998 9.14884 18.1415 7.48217ZM11.3915 16.6905C11.0498 16.6905 10.7165 16.3655 10.7165 16.0155C10.7165 15.6655 11.0415 15.3405 11.3915 15.3405C11.5498 15.3405 11.7415 15.4155 11.8581 15.5238C11.9831 15.6405 12.0665 15.8405 12.0665 16.0072C12.0581 16.3655 11.7332 16.6905 11.3915 16.6905Z" fill="#1976D2"/>
</svg>
