<svg width="20" height="20" viewBox="0 0 20 20" fill="none" xmlns="http://www.w3.org/2000/svg">
<path d="M10 11.4583C9.65833 11.4583 9.375 11.175 9.375 10.8333V6.66663C9.375 6.32496 9.65833 6.04163 10 6.04163C10.3417 6.04163 10.625 6.32496 10.625 6.66663V10.8333C10.625 11.175 10.3417 11.4583 10 11.4583Z" fill="#B1B5C3"/>
<path d="M12.4084 2.87496H7.5917C7.25837 2.87496 6.9917 2.60829 6.9917 2.27496C6.9917 1.94163 7.25837 1.66663 7.5917 1.66663H12.4084C12.7417 1.66663 13.0084 1.93329 13.0084 2.26663C13.0084 2.59996 12.7417 2.87496 12.4084 2.87496Z" fill="#B1B5C3"/>
<path opacity="0.4" d="M12.4999 16.6416V14.1916C12.4999 13.1333 13.1332 12.5 14.1916 12.5H16.6416C16.7999 12.5 16.9416 12.5166 17.0832 12.55C17.1749 12.0833 17.2249 11.6 17.2249 11.1083C17.2249 7.12497 13.9832 3.8833 9.9999 3.8833C6.01657 3.8833 2.7749 7.12497 2.7749 11.1083C2.7749 15.0916 6.01657 18.3333 9.9999 18.3333C11.0082 18.3333 11.9666 18.125 12.8416 17.75C12.6249 17.4666 12.4999 17.1 12.4999 16.6416Z" fill="#B1B5C3"/>
<path d="M16.6417 12.5H14.2C13.1333 12.5 12.5 13.1333 12.5 14.1917V16.6333C12.5 17.6917 13.1333 18.325 14.1917 18.325H16.6333C17.6917 18.325 18.325 17.6917 18.325 16.6333V14.1917C18.3333 13.1333 17.7 12.5 16.6417 12.5ZM14.9333 16.7167C14.9333 16.9833 14.7167 17.2 14.45 17.2C14.1833 17.2 13.9667 16.9833 13.9667 16.7167V14.125C13.9667 13.8583 14.1833 13.6417 14.45 13.6417C14.7167 13.6417 14.9333 13.8583 14.9333 14.125V16.7167ZM16.875 16.7167C16.875 16.9833 16.6583 17.2 16.3917 17.2C16.125 17.2 15.9083 16.9833 15.9083 16.7167V14.125C15.9083 13.8583 16.125 13.6417 16.3917 13.6417C16.6583 13.6417 16.875 13.8583 16.875 14.125V16.7167Z" fill="#B1B5C3"/>
</svg>
