<svg width="40" height="40" viewBox="0 0 40 40" fill="none" xmlns="http://www.w3.org/2000/svg">
<path d="M20.175 0.777344C9.47192 0.777344 0.800049 9.44922 0.800049 20.1523C0.800049 30.8555 9.47192 39.5273 20.175 39.5273C30.8782 39.5273 39.55 30.8555 39.55 20.1523C39.55 9.44922 30.8782 0.777344 20.175 0.777344ZM20.175 8.27734C23.925 8.27734 27.05 11.4023 27.05 15.1523C27.05 18.9805 23.925 22.0273 20.175 22.0273C16.3469 22.0273 13.3 18.9805 13.3 15.1523C13.3 11.4023 16.3469 8.27734 20.175 8.27734ZM20.175 35.1523C15.5657 35.1523 11.425 33.1211 8.69067 29.8398C10.175 27.1055 13.0657 25.1523 16.425 25.1523C16.5813 25.1523 16.7375 25.2305 16.9719 25.3086C17.9875 25.6211 19.0032 25.7773 20.175 25.7773C21.2688 25.7773 22.3625 25.6211 23.3 25.3086C23.5344 25.2305 23.6907 25.1523 23.925 25.1523C27.2063 25.1523 30.0969 27.1055 31.5813 29.8398C28.8469 33.1211 24.7063 35.1523 20.175 35.1523Z" fill="white"/>
</svg>
