<svg width="20" height="20" viewBox="0 0 20 20" fill="none" xmlns="http://www.w3.org/2000/svg">
<path d="M13.4915 1.66602H6.50817C3.47484 1.66602 1.6665 3.47435 1.6665 6.50768V13.4827C1.6665 16.5244 3.47484 18.3327 6.50817 18.3327H13.4832C16.5165 18.3327 18.3248 16.5244 18.3248 13.491V6.50768C18.3332 3.47435 16.5248 1.66602 13.4915 1.66602ZM6.6665 10.8327C6.19984 10.8327 5.83317 10.4577 5.83317 9.99935C5.83317 9.54102 6.20817 9.16602 6.6665 9.16602C7.12484 9.16602 7.49984 9.54102 7.49984 9.99935C7.49984 10.4577 7.13317 10.8327 6.6665 10.8327ZM9.99984 10.8327C9.53317 10.8327 9.1665 10.4577 9.1665 9.99935C9.1665 9.54102 9.5415 9.16602 9.99984 9.16602C10.4582 9.16602 10.8332 9.54102 10.8332 9.99935C10.8332 10.4577 10.4665 10.8327 9.99984 10.8327ZM13.3332 10.8327C12.8665 10.8327 12.4998 10.4577 12.4998 9.99935C12.4998 9.54102 12.8748 9.16602 13.3332 9.16602C13.7915 9.16602 14.1665 9.54102 14.1665 9.99935C14.1665 10.4577 13.7998 10.8327 13.3332 10.8327Z" fill="#1976D2"/>
</svg>
